<?xml version="1.0" encoding="utf-8"?>
<!-- Generator: Adobe Illustrator 25.2.1, SVG Export Plug-In . SVG Version: 6.00 Build 0)  -->
<svg version="1.1" id="Layer_1" xmlns="http://www.w3.org/2000/svg" xmlns:xlink="http://www.w3.org/1999/xlink" x="0px" y="0px"
	 viewBox="0 0 165 40" style="enable-background:new 0 0 165 40;" xml:space="preserve">
<style type="text/css">
	.st0{fill:url(#SVGID_1_);}
	.st1{fill:url(#SVGID_2_);}
	.st2{fill:url(#SVGID_3_);}
	.st3{fill:none;}
	.st4{fill:#00FFFF;}
	.st5{font-family:'FranklinGothic-MediumItalic';}
	.st6{font-size:24px;}
	.st7{fill:#777777;}
</style>
<g>
	<linearGradient id="SVGID_1_" gradientUnits="userSpaceOnUse" x1="76.2191" y1="3.7672" x2="2.8935" y2="45.0655">
		<stop  offset="0" style="stop-color:#00FFDE"/>
		<stop  offset="1" style="stop-color:#00C3FF"/>
	</linearGradient>
	<path class="st0" d="M68.67,15.84c-1.21-7.35-4.43-8.7-8.34-8.91l0.82-1.08c0.27-0.35,0.31-0.82,0.12-1.22
		C61.06,4.25,60.66,4,60.22,4h-6.2c-2.36,0-4.58,1.07-6.05,2.9h-10.1c-6.3,0-11.38,3.55-14.18,7.03c-3.66,0.19-6.13,1.62-7.33,4.26
		c-0.6,1.31-1.61,3.89-2.49,6.84c-0.39,1.31-0.15,2.69,0.67,3.79c0.83,1.11,2.1,1.75,3.49,1.75h4.08c1.37,2.34,3.9,3.91,6.81,3.91
		s5.44-1.57,6.81-3.91h4.25c1.27,0,2.49-0.52,3.38-1.41h6.07c1.07,3.09,4,5.32,7.46,5.32c3.45,0,6.39-2.22,7.46-5.31
		c0.84-0.03,1.73-0.14,2.55-0.46c1.72-0.66,2.7-2.06,2.85-4.07C69.78,24.11,69.34,19.95,68.67,15.84z M46.03,9.22l-4.04,4.69H26.87
		c2.54-2.44,6.45-4.69,11.01-4.69H46.03z M28.91,31.74c-2.84,0-5.15-2.31-5.15-5.15s2.31-5.15,5.15-5.15s5.15,2.31,5.15,5.15
		S31.75,31.74,28.91,31.74z M39.97,28.25h-3.35c0.12-0.54,0.18-1.09,0.18-1.66c0-4.36-3.53-7.89-7.89-7.89
		c-4.36,0-7.89,3.53-7.89,7.89c0,0.57,0.06,1.13,0.18,1.66h-3.17c-0.65,0-1.24-0.3-1.63-0.81c-0.37-0.5-0.49-1.14-0.31-1.74
		c0.85-2.84,1.82-5.3,2.39-6.55c0.89-1.97,2.89-2.93,6.1-2.93h17.95c0.34,0,0.66-0.15,0.88-0.4l6.03-7.01
		c0.03-0.03,0.06-0.07,0.08-0.11c1.01-1.5,2.7-2.39,4.5-2.39h3.86L41.93,27.28C41.47,27.89,40.73,28.25,39.97,28.25z M56.89,31.74
		c-2.84,0-5.15-2.31-5.15-5.15s2.31-5.15,5.15-5.15c2.84,0,5.15,2.31,5.15,5.15S59.73,31.74,56.89,31.74z M64.77,26.8
		c0-0.07,0.01-0.14,0.01-0.21c0-4.36-3.53-7.89-7.89-7.89c-4.36,0-7.89,3.53-7.89,7.89c0,0.09,0,0.17,0.01,0.25h-3.83L58.59,9.22
		h0.23c3.98,0,6.47,0.34,7.57,7c0.69,4.2,1.03,7.8,1.05,8.28C67.3,26.07,66.47,26.64,64.77,26.8z"/>
	<linearGradient id="SVGID_2_" gradientUnits="userSpaceOnUse" x1="81.3204" y1="12.8249" x2="7.9948" y2="54.1232">
		<stop  offset="0" style="stop-color:#00FFDE"/>
		<stop  offset="1" style="stop-color:#00C3FF"/>
	</linearGradient>
	<path class="st1" d="M56.89,23.3c-1.81,0-3.29,1.48-3.29,3.29c0,1.81,1.48,3.29,3.29,3.29c1.81,0,3.29-1.48,3.29-3.29
		C60.18,24.77,58.7,23.3,56.89,23.3z M56.89,27.56c-0.54,0-0.97-0.44-0.97-0.97c0-0.54,0.44-0.97,0.97-0.97
		c0.54,0,0.97,0.44,0.97,0.97C57.86,27.12,57.42,27.56,56.89,27.56z"/>
	<linearGradient id="SVGID_3_" gradientUnits="userSpaceOnUse" x1="74.5838" y1="0.8634" x2="1.2577" y2="42.162">
		<stop  offset="0" style="stop-color:#00FFDE"/>
		<stop  offset="1" style="stop-color:#00C3FF"/>
	</linearGradient>
	<path class="st2" d="M28.91,23.3c-1.81,0-3.29,1.48-3.29,3.29c0,1.81,1.48,3.29,3.29,3.29s3.29-1.48,3.29-3.29
		C32.2,24.77,30.73,23.3,28.91,23.3z M28.91,27.56c-0.54,0-0.97-0.44-0.97-0.97c0-0.54,0.44-0.97,0.97-0.97
		c0.54,0,0.97,0.44,0.97,0.97C29.88,27.12,29.45,27.56,28.91,27.56z"/>
</g>
<rect x="77.75" y="10.38" class="st3" width="273.25" height="56.17"/>
<text transform="matrix(1 0 0 1 77.7508 26.3979)"><tspan x="0" y="0" class="st4 st5 st6">E</tspan><tspan x="12.88" y="0" class="st7 st5 st6">move</tspan></text>
</svg>
